<?xml version="1.0" encoding="utf-8"?>
<!-- Generator: Adobe Illustrator 24.1.2, SVG Export Plug-In . SVG Version: 6.00 Build 0)  -->
<svg version="1.1" id="tel" xmlns="http://www.w3.org/2000/svg" xmlns:xlink="http://www.w3.org/1999/xlink" x="0px" y="0px"
	 width="100px" height="100px" viewBox="0 0 100 100" style="enable-background:new 0 0 100 100;" xml:space="preserve">
<style type="text/css">
	.st0{fill:#019BD4;}
	.st1{fill:#FFFFFF;}
</style>
<path class="st0" d="M88,100H12c-6.6,0-12-5.4-12-12V12C0,5.4,5.4,0,12,0h76c6.6,0,12,5.4,12,12v76C100,94.6,94.6,100,88,100z"/>
<path class="st1" d="M72.4,61c-13.7-10.6-7.6,13.4-27-7.2c-18.8-18,3.7-11.9-6.4-26.2c-5.4-8.1-13.1-3.7-15.8,3.6
	c-0.3,16.4,17.3,33.8,31.1,41.9c4.6,2.8,13.1,4.5,15.7,3.4C76.8,72.6,80,66.3,72.4,61z"/>
</svg>
