<?xml version="1.0" encoding="utf-8"?>
<svg version="1.1" id="vk" xmlns="http://www.w3.org/2000/svg" xmlns:xlink="http://www.w3.org/1999/xlink" x="0px" y="0px" width="100px" height="100px" viewBox="0 0 100 100" style="enable-background:new 0 0 100 100;" xml:space="preserve">
	<style type="text/css">
	.st0{fill:#019BD4;}
	.st1{fill:#FFFFFF;}
</style>
	<path class="st0" d="M88,100H12c-6.6,0-12-5.4-12-12V12C0,5.4,5.4,0,12,0h76c6.6,0,12,5.4,12,12v76C100,94.6,94.6,100,88,100z" />
	<path class="st1" d="M15.8,34.5c0.9,8,11.8,26.6,19.5,32c4,2.9,15,6.3,19.4,4.1c2-1,1.5-7.9,3.7-8.4c3.2-0.8,7.1,7.3,10.2,8.4
	c3.6,1.3,13.2,3.3,15.2,0c1.3-2.3-3.5-7-5-9.2c-1.3-1.8-5.8-4.5-6-6.7c-0.2-3.5,6.1-8.4,7.8-11.5c1.1-2.1,4.9-6.7,3.6-8.7
	c-1.1-1.8-6.3-0.5-8.4-0.6c-1.7-0.1-5.2-0.9-6.6,0c-2.1,1.3-3.3,6.8-4.7,8.8c-1.6,2.4-4.7,9.5-7.4,8.7c-2.7-0.8-1.2-8.3-1.5-11
	c-0.2-1.8,0.5-5.9-0.7-7.2c-1.3-1.4-5.7-1.4-7.6-1.3C45,32,38.7,32,38.4,34.3c-0.1,0.8,2.3,1.1,2.7,1.8c1.1,1.6,1.5,5.5,1.5,7.4
	c0,2,0,7.2-1.9,7.7c-2.7,0.7-5.8-6-7.4-8.3c-1.4-2-2.5-7.3-4.5-8.6C27.6,33.6,15.6,32.7,15.8,34.5z" />
</svg>