<?xml version="1.0" encoding="utf-8"?>
<!-- Generator: Adobe Illustrator 24.3.0, SVG Export Plug-In . SVG Version: 6.00 Build 0)  -->
<svg version="1.1" id="tel" xmlns="http://www.w3.org/2000/svg" xmlns:xlink="http://www.w3.org/1999/xlink" x="0px" y="0px"
	 viewBox="0 0 100 100" style="enable-background:new 0 0 100 100;" xml:space="preserve">
<style type="text/css">
	.st0{fill:#019BD4;}
	.st1{fill:#FFFFFF;stroke:#000000;stroke-width:2;stroke-miterlimit:10;}
	.st2{fill:none;stroke:#FFFFFF;stroke-width:2;stroke-linecap:round;stroke-miterlimit:10;}
	.st3{fill:none;stroke:#000000;stroke-width:2;stroke-miterlimit:10;}
</style>
<path class="st0" d="M88,100H12c-6.6,0-12-5.4-12-12V12C0,5.4,5.4,0,12,0h76c6.6,0,12,5.4,12,12v76C100,94.6,94.6,100,88,100z"/>
<path class="st1" d="M82.1,67.6H41.7c-1.5,0-2.7-1.2-2.7-2.7V33.6c0-1.5,1.2-2.7,2.7-2.7h40.4c1.5,0,2.7,1.2,2.7,2.7V65
	C84.8,66.4,83.6,67.6,82.1,67.6z"/>
<line class="st2" x1="15.9" y1="32.8" x2="35.1" y2="32.8"/>
<line class="st2" x1="23.1" y1="41.3" x2="35.1" y2="41.3"/>
<line class="st2" x1="29.1" y1="50" x2="35.1" y2="50"/>
<path class="st3" d="M39,33.6l19.9,16.5c1.7,1.5,4.2,1.5,5.9,0l19.9-16.5"/>
</svg>
