<?xml version="1.0" encoding="utf-8"?>
<!-- Generator: Adobe Illustrator 26.1.0, SVG Export Plug-In . SVG Version: 6.00 Build 0)  -->
<svg version="1.1" id="Слой_3" xmlns="http://www.w3.org/2000/svg" xmlns:xlink="http://www.w3.org/1999/xlink" x="0px" y="0px"
	 viewBox="0 0 100 100" style="enable-background:new 0 0 100 100;" xml:space="preserve">
<style type="text/css">
	.st0{fill:none;stroke:#1D1D1B;stroke-width:5;stroke-linecap:round;stroke-miterlimit:10;}
</style>
<path class="st0" d="M50,81.3l38.7-38.7c5.6-5.5,8.1-12.9,4.5-19.8c-1-1.9-2.4-3.8-4.2-5.8c-4-4.4-7.4-6.8-10.3-8.1
	c-4.1-1.9-9-0.9-12.3,2.2L9.3,66.6C5.7,70,4.7,75.3,6.9,79.7c0.9,1.9,2.4,3.9,4.5,6.2c0.1,0.1,0.2,0.2,0.2,0.3
	c4.9,5.1,13.1,5.1,18.1,0.1L73,43.9c0,0,3.5-3.3-1-8.9c-0.6-0.7-1.2-1.4-1.8-1.9c-2.8-2.4-7-2.3-9.7,0.3l-29.4,28"/>
</svg>
