<?xml version="1.0" encoding="utf-8"?>
<!-- Generator: Adobe Illustrator 26.1.0, SVG Export Plug-In . SVG Version: 6.00 Build 0)  -->
<svg version="1.1" id="vk" xmlns="http://www.w3.org/2000/svg" xmlns:xlink="http://www.w3.org/1999/xlink" x="0px" y="0px"
	 viewBox="0 0 100 100" style="enable-background:new 0 0 100 100;" xml:space="preserve">
<style type="text/css">
	.st0{fill:#019BD4;}
	.st1{fill:#FFFFFF;}
</style>
<rect y="0" class="st0" width="100" height="100"/>
<path class="st1" d="M8.4,28.6C9.4,38.3,22.7,60.8,32,67.4c4.8,3.5,18.1,7.7,23.5,5c2.4-1.2,1.8-9.6,4.5-10.2
	c3.9-1,8.6,8.8,12.4,10.2c4.3,1.6,16,4,18.4,0c1.6-2.7-4.2-8.5-6.1-11.2c-1.6-2.2-7-5.5-7.2-8.2c-0.2-4.2,7.4-10.2,9.5-13.9
	c1.3-2.6,5.9-8.2,4.3-10.6c-1.3-2.2-7.7-0.6-10.2-0.7c-2.1-0.1-6.3-1.1-8,0c-2.6,1.6-4,8.2-5.7,10.7c-1.9,2.9-5.7,11.5-9,10.6
	C55.2,48.2,57,39,56.6,35.8c-0.2-2.2,0.6-7.2-0.8-8.7c-1.6-1.7-6.9-1.7-9.2-1.6c-2.7,0.1-10.4,0.1-10.8,2.9c-0.1,1,2.7,1.3,3.2,2.2
	c1.3,1.9,1.8,6.7,1.8,9c0,2.4,0,8.7-2.3,9.3c-3.2,0.8-7-7.2-9-10.1c-1.7-2.4-3-8.8-5.5-10.4C22.7,27.5,8.1,26.5,8.4,28.6z"/>
</svg>
